<!-- Generated by IcoMoon.io -->
<svg version="1.1" xmlns="http://www.w3.org/2000/svg" width="448" height="448" viewBox="0 0 448 448">
<g id="icomoon-ignore">
</g>
<path fill="#000" d="M441 2.75c5.25 3.75 7.75 9.75 6.75 16l-64 384c-0.75 4.75-3.75 8.75-8 11.25-2.25 1.25-5 2-7.75 2-2 0-4-0.5-6-1.25l-113.25-46.25-60.5 73.75c-3 3.75-7.5 5.75-12.25 5.75-1.75 0-3.75-0.25-5.5-1-6.25-2.25-10.5-8.25-10.5-15v-87.25l216-264.75-267.25 231.25-98.75-40.5c-5.75-2.25-9.5-7.5-10-13.75-0.25-6 2.75-11.75 8-14.75l416-240c2.5-1.5 5.25-2.25 8-2.25 3.25 0 6.5 1 9 2.75z"></path>
</svg>
