<!-- Generated by IcoMoon.io -->
<svg version="1.1" xmlns="http://www.w3.org/2000/svg" width="768" height="768" viewBox="0 0 768 768">
<g id="icomoon-ignore">
</g>
<path fill="#000" d="M352 96h-224c-26.496 0-50.56 10.784-67.872 28.128s-28.128 41.376-28.128 67.872v448c0 26.496 10.784 50.56 28.128 67.872s41.376 28.128 67.872 28.128h448c26.496 0 50.56-10.784 67.872-28.128s28.128-41.376 28.128-67.872v-224c0-17.664-14.336-32-32-32s-32 14.336-32 32v224c0 8.832-3.552 16.8-9.376 22.624s-13.792 9.376-22.624 9.376h-448c-8.832 0-16.8-3.552-22.624-9.376s-9.376-13.792-9.376-22.624v-448c0-8.832 3.552-16.8 9.376-22.624s13.792-9.376 22.624-9.376h224c17.664 0 32-14.336 32-32s-14.336-32-32-32zM569.376 57.376l-304 304c-3.904 3.872-6.944 8.96-8.416 14.88l-32 128c-1.248 4.8-1.344 10.176 0 15.52 4.288 17.152 21.664 27.584 38.816 23.296l128-32c5.344-1.312 10.56-4.128 14.88-8.416l304-304c19.488-19.488 29.248-45.12 29.248-70.624s-9.76-51.136-29.248-70.624-45.152-29.28-70.656-29.28-51.136 9.76-70.624 29.248zM614.624 102.624c7.008-7.008 16.128-10.496 25.376-10.496s18.368 3.488 25.376 10.496 10.496 16.128 10.496 25.376-3.488 18.368-10.496 25.376l-297.728 297.728-67.648 16.928 16.928-67.648z"></path>
</svg>
